<svg width="1430" height="917" viewBox="0 0 1430 917" fill="none" xmlns="http://www.w3.org/2000/svg">
<path d="M28.2159 25.5592C28.2159 24.5858 28.9263 23.8008 29.8066 23.8008H101V0L10.4882 0C8.01724 0 6 2.22936 6 4.96112V45.6549C6 48.3867 8.01724 50.616 10.4882 50.616H77.5906C78.4719 50.616 79.1813 51.401 79.1813 52.3744C79.1813 53.3478 78.4719 54.1328 77.5906 54.1328H6V77.7766H43.8413V81.1992H6.0283V105H101V81.1992H63.1587V77.7766H96.5118C98.9828 77.7766 101 75.5472 101 72.8155V32.2787C101 29.5469 98.9828 27.3176 96.5118 27.3176H29.7783C28.9263 27.3176 28.2159 26.5326 28.2159 25.5592Z" fill="#AFAFAF" fill-opacity="0.1"/>
<path d="M1350.22 25.5592C1350.22 24.5858 1350.93 23.8008 1351.81 23.8008H1423V0L1332.49 0C1330.02 0 1328 2.22936 1328 4.96112V45.6549C1328 48.3867 1330.02 50.616 1332.49 50.616H1399.59C1400.47 50.616 1401.18 51.401 1401.18 52.3744C1401.18 53.3478 1400.47 54.1328 1399.59 54.1328H1328V77.7766H1365.84V81.1992H1328.03V105H1423V81.1992H1385.16V77.7766H1418.51C1420.98 77.7766 1423 75.5472 1423 72.8155V32.2787C1423 29.5469 1420.98 27.3176 1418.51 27.3176H1351.78C1350.93 27.3176 1350.22 26.5326 1350.22 25.5592Z" fill="#AFAFAF" fill-opacity="0.1"/>
<path d="M136.559 80.4456C135.586 80.4456 134.801 79.6604 134.801 78.6874V-4.29153e-06H111V100.039C111 102.77 113.229 105 115.961 105H156.655C159.387 105 161.616 102.77 161.616 100.039V25.8736C161.616 24.8995 162.401 24.1154 163.374 24.1154C164.348 24.1154 165.133 24.8995 165.133 25.8736V105H188.777V63.1754H192.199V104.969H216V-4.29153e-06H192.199V41.8246H188.777V4.96068C188.777 2.22956 186.547 -4.29153e-06 183.815 -4.29153e-06H143.279C140.547 -4.29153e-06 138.318 2.22956 138.318 4.96068V78.7187C138.318 79.6604 137.533 80.4456 136.559 80.4456Z" fill="#AFAFAF" fill-opacity="0.1"/>
<path d="M248.216 25.5592C248.216 24.5858 248.926 23.8008 249.807 23.8008H321V0L230.488 0C228.017 0 226 2.22936 226 4.96112V45.6549C226 48.3867 228.017 50.616 230.488 50.616H297.591C298.472 50.616 299.181 51.401 299.181 52.3744C299.181 53.3478 298.472 54.1328 297.591 54.1328H226V77.7766H263.841V81.1992H226.028V105H321V81.1992H283.159V77.7766H316.512C318.983 77.7766 321 75.5472 321 72.8155V32.2787C321 29.5469 318.983 27.3176 316.512 27.3176H249.778C248.926 27.3176 248.216 26.5326 248.216 25.5592Z" fill="#AFAFAF" fill-opacity="0.1"/>
<path d="M356.803 80.4456C355.82 80.4456 355.027 79.6604 355.027 78.6874V-4.29153e-06H331V100.039C331 102.77 333.251 105 336.008 105H377.09C379.848 105 382.098 102.77 382.098 100.039V25.8736C382.098 24.8995 382.891 24.1154 383.873 24.1154C384.856 24.1154 385.648 24.8995 385.648 25.8736V105H409.517V63.1754H412.973V104.969H437V-4.29153e-06H412.973V41.8246H409.517V4.96068C409.517 2.22956 407.267 -4.29153e-06 404.509 -4.29153e-06H363.586C360.828 -4.29153e-06 358.578 2.22956 358.578 4.96068V78.7187C358.578 79.6604 357.785 80.4456 356.803 80.4456Z" fill="#AFAFAF" fill-opacity="0.1"/>
<path d="M468.982 25.5592C468.982 24.5858 469.685 23.8008 470.556 23.8008H541V0L451.441 0C448.996 0 447 2.22936 447 4.96112V45.6549C447 48.3867 448.996 50.616 451.441 50.616H517.837C518.709 50.616 519.411 51.401 519.411 52.3744C519.411 53.3478 518.709 54.1328 517.837 54.1328H447V77.7766H484.443V81.1992H447.028V105H541V81.1992H503.557V77.7766H536.559C539.004 77.7766 541 75.5472 541 72.8155V32.2787C541 29.5469 539.004 27.3176 536.559 27.3176H470.528C469.685 27.3176 468.982 26.5326 468.982 25.5592Z" fill="#AFAFAF" fill-opacity="0.1"/>
<path d="M576.803 80.4456C575.82 80.4456 575.027 79.6604 575.027 78.6874V-4.29153e-06H551V100.039C551 102.77 553.251 105 556.008 105H597.09C599.848 105 602.098 102.77 602.098 100.039V25.8736C602.098 24.8995 602.891 24.1154 603.873 24.1154C604.856 24.1154 605.648 24.8995 605.648 25.8736V105H629.517V63.1754H632.973V104.969H657V-4.29153e-06H632.973V41.8246H629.517V4.96068C629.517 2.22956 627.267 -4.29153e-06 624.509 -4.29153e-06H583.586C580.828 -4.29153e-06 578.578 2.22956 578.578 4.96068V78.7187C578.578 79.6604 577.785 80.4456 576.803 80.4456Z" fill="#AFAFAF" fill-opacity="0.1"/>
<path d="M689.216 25.5592C689.216 24.5858 689.926 23.8008 690.807 23.8008H762V0L671.488 0C669.017 0 667 2.22936 667 4.96112V45.6549C667 48.3867 669.017 50.616 671.488 50.616H738.591C739.472 50.616 740.181 51.401 740.181 52.3744C740.181 53.3478 739.472 54.1328 738.591 54.1328H667V77.7766H704.841V81.1992H667.028V105H762V81.1992H724.159V77.7766H757.512C759.983 77.7766 762 75.5472 762 72.8155V32.2787C762 29.5469 759.983 27.3176 757.512 27.3176H690.778C689.926 27.3176 689.216 26.5326 689.216 25.5592Z" fill="#AFAFAF" fill-opacity="0.1"/>
<path d="M797.803 80.4456C796.82 80.4456 796.027 79.6604 796.027 78.6874V-4.29153e-06H772V100.039C772 102.77 774.251 105 777.008 105H818.09C820.848 105 823.098 102.77 823.098 100.039V25.8736C823.098 24.8995 823.891 24.1154 824.873 24.1154C825.856 24.1154 826.648 24.8995 826.648 25.8736V105H850.517V63.1754H853.973V104.969H878V-4.29153e-06H853.973V41.8246H850.517V4.96068C850.517 2.22956 848.267 -4.29153e-06 845.509 -4.29153e-06H804.586C801.828 -4.29153e-06 799.578 2.22956 799.578 4.96068V78.7187C799.578 79.6604 798.785 80.4456 797.803 80.4456Z" fill="#AFAFAF" fill-opacity="0.1"/>
<path d="M909.982 25.5592C909.982 24.5858 910.685 23.8008 911.556 23.8008H982V0L892.441 0C889.996 0 888 2.22936 888 4.96112V45.6549C888 48.3867 889.996 50.616 892.441 50.616H958.837C959.709 50.616 960.411 51.401 960.411 52.3744C960.411 53.3478 959.709 54.1328 958.837 54.1328H888V77.7766H925.443V81.1992H888.028V105H982V81.1992H944.557V77.7766H977.559C980.004 77.7766 982 75.5472 982 72.8155V32.2787C982 29.5469 980.004 27.3176 977.559 27.3176H911.528C910.685 27.3176 909.982 26.5326 909.982 25.5592Z" fill="#AFAFAF" fill-opacity="0.1"/>
<path d="M1017.8 80.4456C1016.82 80.4456 1016.03 79.6604 1016.03 78.6874V-4.29153e-06H992V100.039C992 102.77 994.251 105 997.008 105H1038.09C1040.85 105 1043.1 102.77 1043.1 100.039V25.8736C1043.1 24.8995 1043.89 24.1154 1044.87 24.1154C1045.86 24.1154 1046.65 24.8995 1046.65 25.8736V105H1070.52V63.1754H1073.97V104.969H1098V-4.29153e-06H1073.97V41.8246H1070.52V4.96068C1070.52 2.22956 1068.27 -4.29153e-06 1065.51 -4.29153e-06H1024.59C1021.83 -4.29153e-06 1019.58 2.22956 1019.58 4.96068V78.7187C1019.58 79.6604 1018.79 80.4456 1017.8 80.4456Z" fill="#AFAFAF" fill-opacity="0.1"/>
<path d="M1130.22 25.5592C1130.22 24.5858 1130.93 23.8008 1131.81 23.8008H1203V0L1112.49 0C1110.02 0 1108 2.22936 1108 4.96112V45.6549C1108 48.3867 1110.02 50.616 1112.49 50.616H1179.59C1180.47 50.616 1181.18 51.401 1181.18 52.3744C1181.18 53.3478 1180.47 54.1328 1179.59 54.1328H1108V77.7766H1145.84V81.1992H1108.03V105H1203V81.1992H1165.16V77.7766H1198.51C1200.98 77.7766 1203 75.5472 1203 72.8155V32.2787C1203 29.5469 1200.98 27.3176 1198.51 27.3176H1131.78C1130.93 27.3176 1130.22 26.5326 1130.22 25.5592Z" fill="#AFAFAF" fill-opacity="0.1"/>
<path d="M1238.56 80.4456C1237.59 80.4456 1236.8 79.6604 1236.8 78.6874V-4.29153e-06H1213V100.039C1213 102.77 1215.23 105 1217.96 105H1258.65C1261.39 105 1263.62 102.77 1263.62 100.039V25.8736C1263.62 24.8995 1264.4 24.1154 1265.37 24.1154C1266.35 24.1154 1267.13 24.8995 1267.13 25.8736V105H1290.78V63.1754H1294.2V104.969H1318V-4.29153e-06H1294.2V41.8246H1290.78V4.96068C1290.78 2.22956 1288.55 -4.29153e-06 1285.82 -4.29153e-06H1245.28C1242.55 -4.29153e-06 1240.32 2.22956 1240.32 4.96068V78.7187C1240.32 79.6604 1239.53 80.4456 1238.56 80.4456Z" fill="#AFAFAF" fill-opacity="0.1"/>
<path d="M137.982 141.559C137.982 140.586 138.685 139.801 139.556 139.801H210V116H120.441C117.996 116 116 118.229 116 120.961V161.655C116 164.387 117.996 166.616 120.441 166.616H186.837C187.709 166.616 188.411 167.401 188.411 168.374C188.411 169.348 187.709 170.133 186.837 170.133H116V193.777H153.443V197.199H116.028V221H210V197.199H172.557V193.777H205.559C208.004 193.777 210 191.547 210 188.815V148.279C210 145.547 208.004 143.318 205.559 143.318H139.528C138.685 143.318 137.982 142.533 137.982 141.559Z" fill="#AFAFAF" fill-opacity="0.1"/>
<path d="M245.803 196.446C244.82 196.446 244.027 195.66 244.027 194.687V116H220V216.039C220 218.77 222.251 221 225.008 221H266.09C268.848 221 271.098 218.77 271.098 216.039V141.874C271.098 140.9 271.891 140.115 272.873 140.115C273.856 140.115 274.648 140.9 274.648 141.874V221H298.517V179.175H301.973V220.969H326V116H301.973V157.825H298.517V120.961C298.517 118.23 296.267 116 293.509 116H252.586C249.828 116 247.578 118.23 247.578 120.961V194.719C247.578 195.66 246.785 196.446 245.803 196.446Z" fill="#AFAFAF" fill-opacity="0.1"/>
<path d="M358.216 141.559C358.216 140.586 358.926 139.801 359.807 139.801H431V116H340.488C338.017 116 336 118.229 336 120.961V161.655C336 164.387 338.017 166.616 340.488 166.616H407.591C408.472 166.616 409.181 167.401 409.181 168.374C409.181 169.348 408.472 170.133 407.591 170.133H336V193.777H373.841V197.199H336.028V221H431V197.199H393.159V193.777H426.512C428.983 193.777 431 191.547 431 188.815V148.279C431 145.547 428.983 143.318 426.512 143.318H359.778C358.926 143.318 358.216 142.533 358.216 141.559Z" fill="#AFAFAF" fill-opacity="0.1"/>
<path d="M466.559 196.446C465.586 196.446 464.801 195.66 464.801 194.687V116H441V216.039C441 218.77 443.229 221 445.961 221H486.655C489.387 221 491.616 218.77 491.616 216.039V141.874C491.616 140.9 492.401 140.115 493.374 140.115C494.348 140.115 495.133 140.9 495.133 141.874V221H518.777V179.175H522.199V220.969H546V116H522.199V157.825H518.777V120.961C518.777 118.23 516.547 116 513.815 116H473.279C470.547 116 468.318 118.23 468.318 120.961V194.719C468.318 195.66 467.533 196.446 466.559 196.446Z" fill="#AFAFAF" fill-opacity="0.1"/>
<path d="M578.982 141.559C578.982 140.586 579.685 139.801 580.556 139.801H651V116H561.441C558.996 116 557 118.229 557 120.961V161.655C557 164.387 558.996 166.616 561.441 166.616H627.837C628.709 166.616 629.411 167.401 629.411 168.374C629.411 169.348 628.709 170.133 627.837 170.133H557V193.777H594.443V197.199H557.028V221H651V197.199H613.557V193.777H646.559C649.004 193.777 651 191.547 651 188.815V148.279C651 145.547 649.004 143.318 646.559 143.318H580.528C579.685 143.318 578.982 142.533 578.982 141.559Z" fill="#AFAFAF" fill-opacity="0.1"/>
<path d="M686.803 196.446C685.82 196.446 685.027 195.66 685.027 194.687V116H661V216.039C661 218.77 663.251 221 666.008 221H707.09C709.848 221 712.098 218.77 712.098 216.039V141.874C712.098 140.9 712.891 140.115 713.873 140.115C714.856 140.115 715.648 140.9 715.648 141.874V221H739.517V179.175H742.973V220.969H767V116H742.973V157.825H739.517V120.961C739.517 118.23 737.267 116 734.509 116H693.586C690.828 116 688.578 118.23 688.578 120.961V194.719C688.578 195.66 687.785 196.446 686.803 196.446Z" fill="#AFAFAF" fill-opacity="0.1"/>
<path d="M798.982 141.559C798.982 140.586 799.685 139.801 800.556 139.801H871V116H781.441C778.996 116 777 118.229 777 120.961V161.655C777 164.387 778.996 166.616 781.441 166.616H847.837C848.709 166.616 849.411 167.401 849.411 168.374C849.411 169.348 848.709 170.133 847.837 170.133H777V193.777H814.443V197.199H777.028V221H871V197.199H833.557V193.777H866.559C869.004 193.777 871 191.547 871 188.815V148.279C871 145.547 869.004 143.318 866.559 143.318H800.528C799.685 143.318 798.982 142.533 798.982 141.559Z" fill="#AFAFAF" fill-opacity="0.1"/>
<path d="M907.559 196.446C906.586 196.446 905.801 195.66 905.801 194.687V116H882V216.039C882 218.77 884.229 221 886.961 221H927.655C930.387 221 932.616 218.77 932.616 216.039V141.874C932.616 140.9 933.401 140.115 934.374 140.115C935.348 140.115 936.133 140.9 936.133 141.874V221H959.777V179.175H963.199V220.969H987V116H963.199V157.825H959.777V120.961C959.777 118.23 957.547 116 954.815 116H914.279C911.547 116 909.318 118.23 909.318 120.961V194.719C909.318 195.66 908.533 196.446 907.559 196.446Z" fill="#AFAFAF" fill-opacity="0.1"/>
<path d="M1019.22 141.559C1019.22 140.586 1019.93 139.801 1020.81 139.801H1092V116H1001.49C999.017 116 997 118.229 997 120.961V161.655C997 164.387 999.017 166.616 1001.49 166.616H1068.59C1069.47 166.616 1070.18 167.401 1070.18 168.374C1070.18 169.348 1069.47 170.133 1068.59 170.133H997V193.777H1034.84V197.199H997.028V221H1092V197.199H1054.16V193.777H1087.51C1089.98 193.777 1092 191.547 1092 188.815V148.279C1092 145.547 1089.98 143.318 1087.51 143.318H1020.78C1019.93 143.318 1019.22 142.533 1019.22 141.559Z" fill="#AFAFAF" fill-opacity="0.1"/>
<path d="M1127.8 196.446C1126.82 196.446 1126.03 195.66 1126.03 194.687V116H1102V216.039C1102 218.77 1104.25 221 1107.01 221H1148.09C1150.85 221 1153.1 218.77 1153.1 216.039V141.874C1153.1 140.9 1153.89 140.115 1154.87 140.115C1155.86 140.115 1156.65 140.9 1156.65 141.874V221H1180.52V179.175H1183.97V220.969H1208V116H1183.97V157.825H1180.52V120.961C1180.52 118.23 1178.27 116 1175.51 116H1134.59C1131.83 116 1129.58 118.23 1129.58 120.961V194.719C1129.58 195.66 1128.79 196.446 1127.8 196.446Z" fill="#AFAFAF" fill-opacity="0.1"/>
<path d="M1239.98 141.559C1239.98 140.586 1240.68 139.801 1241.56 139.801H1312V116H1222.44C1220 116 1218 118.229 1218 120.961V161.655C1218 164.387 1220 166.616 1222.44 166.616H1288.84C1289.71 166.616 1290.41 167.401 1290.41 168.374C1290.41 169.348 1289.71 170.133 1288.84 170.133H1218V193.777H1255.44V197.199H1218.03V221H1312V197.199H1274.56V193.777H1307.56C1310 193.777 1312 191.547 1312 188.815V148.279C1312 145.547 1310 143.318 1307.56 143.318H1241.53C1240.68 143.318 1239.98 142.533 1239.98 141.559Z" fill="#AFAFAF" fill-opacity="0.1"/>
<path d="M1347.8 196.446C1346.82 196.446 1346.03 195.66 1346.03 194.687V116H1322V216.039C1322 218.77 1324.25 221 1327.01 221H1368.09C1370.85 221 1373.1 218.77 1373.1 216.039V141.874C1373.1 140.9 1373.89 140.115 1374.87 140.115C1375.86 140.115 1376.65 140.9 1376.65 141.874V221H1400.52V179.175H1403.97V220.969H1428V116H1403.97V157.825H1400.52V120.961C1400.52 118.23 1398.27 116 1395.51 116H1354.59C1351.83 116 1349.58 118.23 1349.58 120.961V194.719C1349.58 195.66 1348.79 196.446 1347.8 196.446Z" fill="#AFAFAF" fill-opacity="0.1"/>
<path d="M25.8026 196.446C24.82 196.446 24.0275 195.66 24.0275 194.687L24.0275 116H0L0 216.039C0 218.77 2.25059 221 5.00837 221H46.0897C48.8475 221 51.0981 218.77 51.0981 216.039L51.0981 141.874C51.0981 140.9 51.8905 140.115 52.8732 140.115C53.8559 140.115 54.6484 140.9 54.6484 141.874L54.6484 221H78.5173V179.175H81.9725V220.969H106V116H81.9725V157.825H78.5173V120.961C78.5173 118.23 76.2667 116 73.509 116H32.5861C29.8283 116 27.5778 118.23 27.5778 120.961L27.5778 194.719C27.5778 195.66 26.7853 196.446 25.8026 196.446Z" fill="#AFAFAF" fill-opacity="0.1"/>
<path d="M28.2159 257.559C28.2159 256.586 28.9263 255.801 29.8066 255.801H101V232H10.4882C8.01724 232 6 234.229 6 236.961V277.655C6 280.387 8.01724 282.616 10.4882 282.616H77.5906C78.4719 282.616 79.1813 283.401 79.1813 284.374C79.1813 285.348 78.4719 286.133 77.5906 286.133H6V309.777H43.8413V313.199H6.0283V337H101V313.199H63.1587V309.777H96.5118C98.9828 309.777 101 307.547 101 304.815V264.279C101 261.547 98.9828 259.318 96.5118 259.318H29.7783C28.9263 259.318 28.2159 258.533 28.2159 257.559Z" fill="#AFAFAF" fill-opacity="0.1"/>
<path d="M1350.22 257.559C1350.22 256.586 1350.93 255.801 1351.81 255.801H1423V232H1332.49C1330.02 232 1328 234.229 1328 236.961V277.655C1328 280.387 1330.02 282.616 1332.49 282.616H1399.59C1400.47 282.616 1401.18 283.401 1401.18 284.374C1401.18 285.348 1400.47 286.133 1399.59 286.133H1328V309.777H1365.84V313.199H1328.03V337H1423V313.199H1385.16V309.777H1418.51C1420.98 309.777 1423 307.547 1423 304.815V264.279C1423 261.547 1420.98 259.318 1418.51 259.318H1351.78C1350.93 259.318 1350.22 258.533 1350.22 257.559Z" fill="#AFAFAF" fill-opacity="0.1"/>
<path d="M136.559 312.446C135.586 312.446 134.801 311.66 134.801 310.687V232H111V332.039C111 334.77 113.229 337 115.961 337H156.655C159.387 337 161.616 334.77 161.616 332.039V257.874C161.616 256.9 162.401 256.115 163.374 256.115C164.348 256.115 165.133 256.9 165.133 257.874V337H188.777V295.175H192.199V336.969H216V232H192.199V273.825H188.777V236.961C188.777 234.23 186.547 232 183.815 232H143.279C140.547 232 138.318 234.23 138.318 236.961V310.719C138.318 311.66 137.533 312.446 136.559 312.446Z" fill="#AFAFAF" fill-opacity="0.1"/>
<path d="M248.216 257.559C248.216 256.586 248.926 255.801 249.807 255.801H321V232H230.488C228.017 232 226 234.229 226 236.961V277.655C226 280.387 228.017 282.616 230.488 282.616H297.591C298.472 282.616 299.181 283.401 299.181 284.374C299.181 285.348 298.472 286.133 297.591 286.133H226V309.777H263.841V313.199H226.028V337H321V313.199H283.159V309.777H316.512C318.983 309.777 321 307.547 321 304.815V264.279C321 261.547 318.983 259.318 316.512 259.318H249.778C248.926 259.318 248.216 258.533 248.216 257.559Z" fill="#AFAFAF" fill-opacity="0.1"/>
<path d="M356.803 312.446C355.82 312.446 355.027 311.66 355.027 310.687V232H331V332.039C331 334.77 333.251 337 336.008 337H377.09C379.848 337 382.098 334.77 382.098 332.039V257.874C382.098 256.9 382.891 256.115 383.873 256.115C384.856 256.115 385.648 256.9 385.648 257.874V337H409.517V295.175H412.973V336.969H437V232H412.973V273.825H409.517V236.961C409.517 234.23 407.267 232 404.509 232H363.586C360.828 232 358.578 234.23 358.578 236.961V310.719C358.578 311.66 357.785 312.446 356.803 312.446Z" fill="#AFAFAF" fill-opacity="0.1"/>
<path d="M468.982 257.559C468.982 256.586 469.685 255.801 470.556 255.801H541V232H451.441C448.996 232 447 234.229 447 236.961V277.655C447 280.387 448.996 282.616 451.441 282.616H517.837C518.709 282.616 519.411 283.401 519.411 284.374C519.411 285.348 518.709 286.133 517.837 286.133H447V309.777H484.443V313.199H447.028V337H541V313.199H503.557V309.777H536.559C539.004 309.777 541 307.547 541 304.815V264.279C541 261.547 539.004 259.318 536.559 259.318H470.528C469.685 259.318 468.982 258.533 468.982 257.559Z" fill="#AFAFAF" fill-opacity="0.1"/>
<path d="M576.803 312.446C575.82 312.446 575.027 311.66 575.027 310.687V232H551V332.039C551 334.77 553.251 337 556.008 337H597.09C599.848 337 602.098 334.77 602.098 332.039V257.874C602.098 256.9 602.891 256.115 603.873 256.115C604.856 256.115 605.648 256.9 605.648 257.874V337H629.517V295.175H632.973V336.969H657V232H632.973V273.825H629.517V236.961C629.517 234.23 627.267 232 624.509 232H583.586C580.828 232 578.578 234.23 578.578 236.961V310.719C578.578 311.66 577.785 312.446 576.803 312.446Z" fill="#AFAFAF" fill-opacity="0.1"/>
<path d="M689.216 257.559C689.216 256.586 689.926 255.801 690.807 255.801H762V232H671.488C669.017 232 667 234.229 667 236.961V277.655C667 280.387 669.017 282.616 671.488 282.616H738.591C739.472 282.616 740.181 283.401 740.181 284.374C740.181 285.348 739.472 286.133 738.591 286.133H667V309.777H704.841V313.199H667.028V337H762V313.199H724.159V309.777H757.512C759.983 309.777 762 307.547 762 304.815V264.279C762 261.547 759.983 259.318 757.512 259.318H690.778C689.926 259.318 689.216 258.533 689.216 257.559Z" fill="#AFAFAF" fill-opacity="0.1"/>
<path d="M797.803 312.446C796.82 312.446 796.027 311.66 796.027 310.687V232H772V332.039C772 334.77 774.251 337 777.008 337H818.09C820.848 337 823.098 334.77 823.098 332.039V257.874C823.098 256.9 823.891 256.115 824.873 256.115C825.856 256.115 826.648 256.9 826.648 257.874V337H850.517V295.175H853.973V336.969H878V232H853.973V273.825H850.517V236.961C850.517 234.23 848.267 232 845.509 232H804.586C801.828 232 799.578 234.23 799.578 236.961V310.719C799.578 311.66 798.785 312.446 797.803 312.446Z" fill="#AFAFAF" fill-opacity="0.1"/>
<path d="M909.982 257.559C909.982 256.586 910.685 255.801 911.556 255.801H982V232H892.441C889.996 232 888 234.229 888 236.961V277.655C888 280.387 889.996 282.616 892.441 282.616H958.837C959.709 282.616 960.411 283.401 960.411 284.374C960.411 285.348 959.709 286.133 958.837 286.133H888V309.777H925.443V313.199H888.028V337H982V313.199H944.557V309.777H977.559C980.004 309.777 982 307.547 982 304.815V264.279C982 261.547 980.004 259.318 977.559 259.318H911.528C910.685 259.318 909.982 258.533 909.982 257.559Z" fill="#AFAFAF" fill-opacity="0.1"/>
<path d="M1017.8 312.446C1016.82 312.446 1016.03 311.66 1016.03 310.687V232H992V332.039C992 334.77 994.251 337 997.008 337H1038.09C1040.85 337 1043.1 334.77 1043.1 332.039V257.874C1043.1 256.9 1043.89 256.115 1044.87 256.115C1045.86 256.115 1046.65 256.9 1046.65 257.874V337H1070.52V295.175H1073.97V336.969H1098V232H1073.97V273.825H1070.52V236.961C1070.52 234.23 1068.27 232 1065.51 232H1024.59C1021.83 232 1019.58 234.23 1019.58 236.961V310.719C1019.58 311.66 1018.79 312.446 1017.8 312.446Z" fill="#AFAFAF" fill-opacity="0.1"/>
<path d="M1130.22 257.559C1130.22 256.586 1130.93 255.801 1131.81 255.801H1203V232H1112.49C1110.02 232 1108 234.229 1108 236.961V277.655C1108 280.387 1110.02 282.616 1112.49 282.616H1179.59C1180.47 282.616 1181.18 283.401 1181.18 284.374C1181.18 285.348 1180.47 286.133 1179.59 286.133H1108V309.777H1145.84V313.199H1108.03V337H1203V313.199H1165.16V309.777H1198.51C1200.98 309.777 1203 307.547 1203 304.815V264.279C1203 261.547 1200.98 259.318 1198.51 259.318H1131.78C1130.93 259.318 1130.22 258.533 1130.22 257.559Z" fill="#AFAFAF" fill-opacity="0.1"/>
<path d="M1238.56 312.446C1237.59 312.446 1236.8 311.66 1236.8 310.687V232H1213V332.039C1213 334.77 1215.23 337 1217.96 337H1258.65C1261.39 337 1263.62 334.77 1263.62 332.039V257.874C1263.62 256.9 1264.4 256.115 1265.37 256.115C1266.35 256.115 1267.13 256.9 1267.13 257.874V337H1290.78V295.175H1294.2V336.969H1318V232H1294.2V273.825H1290.78V236.961C1290.78 234.23 1288.55 232 1285.82 232H1245.28C1242.55 232 1240.32 234.23 1240.32 236.961V310.719C1240.32 311.66 1239.53 312.446 1238.56 312.446Z" fill="#AFAFAF" fill-opacity="0.1"/>
<path d="M137.982 373.559C137.982 372.586 138.685 371.801 139.556 371.801H210V348H120.441C117.996 348 116 350.229 116 352.961V393.655C116 396.387 117.996 398.616 120.441 398.616H186.837C187.709 398.616 188.411 399.401 188.411 400.374C188.411 401.348 187.709 402.133 186.837 402.133H116V425.777H153.443V429.199H116.028V453H210V429.199H172.557V425.777H205.559C208.004 425.777 210 423.547 210 420.815V380.279C210 377.547 208.004 375.318 205.559 375.318H139.528C138.685 375.318 137.982 374.533 137.982 373.559Z" fill="#AFAFAF" fill-opacity="0.1"/>
<path d="M245.803 428.446C244.82 428.446 244.027 427.66 244.027 426.687V348H220V448.039C220 450.77 222.251 453 225.008 453H266.09C268.848 453 271.098 450.77 271.098 448.039V373.874C271.098 372.9 271.891 372.115 272.873 372.115C273.856 372.115 274.648 372.9 274.648 373.874V453H298.517V411.175H301.973V452.969H326V348H301.973V389.825H298.517V352.961C298.517 350.23 296.267 348 293.509 348H252.586C249.828 348 247.578 350.23 247.578 352.961V426.719C247.578 427.66 246.785 428.446 245.803 428.446Z" fill="#AFAFAF" fill-opacity="0.1"/>
<path d="M358.216 373.559C358.216 372.586 358.926 371.801 359.807 371.801H431V348H340.488C338.017 348 336 350.229 336 352.961V393.655C336 396.387 338.017 398.616 340.488 398.616H407.591C408.472 398.616 409.181 399.401 409.181 400.374C409.181 401.348 408.472 402.133 407.591 402.133H336V425.777H373.841V429.199H336.028V453H431V429.199H393.159V425.777H426.512C428.983 425.777 431 423.547 431 420.815V380.279C431 377.547 428.983 375.318 426.512 375.318H359.778C358.926 375.318 358.216 374.533 358.216 373.559Z" fill="#AFAFAF" fill-opacity="0.1"/>
<path d="M466.559 428.446C465.586 428.446 464.801 427.66 464.801 426.687V348H441V448.039C441 450.77 443.229 453 445.961 453H486.655C489.387 453 491.616 450.77 491.616 448.039V373.874C491.616 372.9 492.401 372.115 493.374 372.115C494.348 372.115 495.133 372.9 495.133 373.874V453H518.777V411.175H522.199V452.969H546V348H522.199V389.825H518.777V352.961C518.777 350.23 516.547 348 513.815 348H473.279C470.547 348 468.318 350.23 468.318 352.961V426.719C468.318 427.66 467.533 428.446 466.559 428.446Z" fill="#AFAFAF" fill-opacity="0.1"/>
<path d="M578.982 373.559C578.982 372.586 579.685 371.801 580.556 371.801H651V348H561.441C558.996 348 557 350.229 557 352.961V393.655C557 396.387 558.996 398.616 561.441 398.616H627.837C628.709 398.616 629.411 399.401 629.411 400.374C629.411 401.348 628.709 402.133 627.837 402.133H557V425.777H594.443V429.199H557.028V453H651V429.199H613.557V425.777H646.559C649.004 425.777 651 423.547 651 420.815V380.279C651 377.547 649.004 375.318 646.559 375.318H580.528C579.685 375.318 578.982 374.533 578.982 373.559Z" fill="#AFAFAF" fill-opacity="0.1"/>
<path d="M686.803 428.446C685.82 428.446 685.027 427.66 685.027 426.687V348H661V448.039C661 450.77 663.251 453 666.008 453H707.09C709.848 453 712.098 450.77 712.098 448.039V373.874C712.098 372.9 712.891 372.115 713.873 372.115C714.856 372.115 715.648 372.9 715.648 373.874V453H739.517V411.175H742.973V452.969H767V348H742.973V389.825H739.517V352.961C739.517 350.23 737.267 348 734.509 348H693.586C690.828 348 688.578 350.23 688.578 352.961V426.719C688.578 427.66 687.785 428.446 686.803 428.446Z" fill="#AFAFAF" fill-opacity="0.1"/>
<path d="M798.982 373.559C798.982 372.586 799.685 371.801 800.556 371.801H871V348H781.441C778.996 348 777 350.229 777 352.961V393.655C777 396.387 778.996 398.616 781.441 398.616H847.837C848.709 398.616 849.411 399.401 849.411 400.374C849.411 401.348 848.709 402.133 847.837 402.133H777V425.777H814.443V429.199H777.028V453H871V429.199H833.557V425.777H866.559C869.004 425.777 871 423.547 871 420.815V380.279C871 377.547 869.004 375.318 866.559 375.318H800.528C799.685 375.318 798.982 374.533 798.982 373.559Z" fill="#AFAFAF" fill-opacity="0.1"/>
<path d="M907.559 428.446C906.586 428.446 905.801 427.66 905.801 426.687V348H882V448.039C882 450.77 884.229 453 886.961 453H927.655C930.387 453 932.616 450.77 932.616 448.039V373.874C932.616 372.9 933.401 372.115 934.374 372.115C935.348 372.115 936.133 372.9 936.133 373.874V453H959.777V411.175H963.199V452.969H987V348H963.199V389.825H959.777V352.961C959.777 350.23 957.547 348 954.815 348H914.279C911.547 348 909.318 350.23 909.318 352.961V426.719C909.318 427.66 908.533 428.446 907.559 428.446Z" fill="#AFAFAF" fill-opacity="0.1"/>
<path d="M1019.22 373.559C1019.22 372.586 1019.93 371.801 1020.81 371.801H1092V348H1001.49C999.017 348 997 350.229 997 352.961V393.655C997 396.387 999.017 398.616 1001.49 398.616H1068.59C1069.47 398.616 1070.18 399.401 1070.18 400.374C1070.18 401.348 1069.47 402.133 1068.59 402.133H997V425.777H1034.84V429.199H997.028V453H1092V429.199H1054.16V425.777H1087.51C1089.98 425.777 1092 423.547 1092 420.815V380.279C1092 377.547 1089.98 375.318 1087.51 375.318H1020.78C1019.93 375.318 1019.22 374.533 1019.22 373.559Z" fill="#AFAFAF" fill-opacity="0.1"/>
<path d="M1127.8 428.446C1126.82 428.446 1126.03 427.66 1126.03 426.687V348H1102V448.039C1102 450.77 1104.25 453 1107.01 453H1148.09C1150.85 453 1153.1 450.77 1153.1 448.039V373.874C1153.1 372.9 1153.89 372.115 1154.87 372.115C1155.86 372.115 1156.65 372.9 1156.65 373.874V453H1180.52V411.175H1183.97V452.969H1208V348H1183.97V389.825H1180.52V352.961C1180.52 350.23 1178.27 348 1175.51 348H1134.59C1131.83 348 1129.58 350.23 1129.58 352.961V426.719C1129.58 427.66 1128.79 428.446 1127.8 428.446Z" fill="#AFAFAF" fill-opacity="0.1"/>
<path d="M1239.98 373.559C1239.98 372.586 1240.68 371.801 1241.56 371.801H1312V348H1222.44C1220 348 1218 350.229 1218 352.961V393.655C1218 396.387 1220 398.616 1222.44 398.616H1288.84C1289.71 398.616 1290.41 399.401 1290.41 400.374C1290.41 401.348 1289.71 402.133 1288.84 402.133H1218V425.777H1255.44V429.199H1218.03V453H1312V429.199H1274.56V425.777H1307.56C1310 425.777 1312 423.547 1312 420.815V380.279C1312 377.547 1310 375.318 1307.56 375.318H1241.53C1240.68 375.318 1239.98 374.533 1239.98 373.559Z" fill="#AFAFAF" fill-opacity="0.1"/>
<path d="M1347.8 428.446C1346.82 428.446 1346.03 427.66 1346.03 426.687V348H1322V448.039C1322 450.77 1324.25 453 1327.01 453H1368.09C1370.85 453 1373.1 450.77 1373.1 448.039V373.874C1373.1 372.9 1373.89 372.115 1374.87 372.115C1375.86 372.115 1376.65 372.9 1376.65 373.874V453H1400.52V411.175H1403.97V452.969H1428V348H1403.97V389.825H1400.52V352.961C1400.52 350.23 1398.27 348 1395.51 348H1354.59C1351.83 348 1349.58 350.23 1349.58 352.961V426.719C1349.58 427.66 1348.79 428.446 1347.8 428.446Z" fill="#AFAFAF" fill-opacity="0.1"/>
<path d="M25.8026 428.446C24.82 428.446 24.0275 427.66 24.0275 426.687L24.0275 348H0L0 448.039C0 450.77 2.25059 453 5.00837 453H46.0897C48.8475 453 51.0981 450.77 51.0981 448.039L51.0981 373.874C51.0981 372.9 51.8905 372.115 52.8732 372.115C53.8559 372.115 54.6484 372.9 54.6484 373.874L54.6484 453H78.5173V411.175H81.9725V452.969H106V348H81.9725V389.825H78.5173V352.961C78.5173 350.23 76.2667 348 73.509 348H32.5861C29.8283 348 27.5778 350.23 27.5778 352.961L27.5778 426.719C27.5778 427.66 26.7853 428.446 25.8026 428.446Z" fill="#AFAFAF" fill-opacity="0.1"/>
<path d="M28.2159 721.559C28.2159 720.586 28.9263 719.801 29.8066 719.801H101V696H10.4882C8.01724 696 6 698.229 6 700.961V741.655C6 744.387 8.01724 746.616 10.4882 746.616H77.5906C78.4719 746.616 79.1813 747.401 79.1813 748.374C79.1813 749.348 78.4719 750.133 77.5906 750.133H6V773.777H43.8413V777.199H6.0283V801H101V777.199H63.1587V773.777H96.5118C98.9828 773.777 101 771.547 101 768.815V728.279C101 725.547 98.9828 723.318 96.5118 723.318H29.7783C28.9263 723.318 28.2159 722.533 28.2159 721.559Z" fill="#AFAFAF" fill-opacity="0.1"/>
<path d="M1350.22 721.559C1350.22 720.586 1350.93 719.801 1351.81 719.801H1423V696H1332.49C1330.02 696 1328 698.229 1328 700.961V741.655C1328 744.387 1330.02 746.616 1332.49 746.616H1399.59C1400.47 746.616 1401.18 747.401 1401.18 748.374C1401.18 749.348 1400.47 750.133 1399.59 750.133H1328V773.777H1365.84V777.199H1328.03V801H1423V777.199H1385.16V773.777H1418.51C1420.98 773.777 1423 771.547 1423 768.815V728.279C1423 725.547 1420.98 723.318 1418.51 723.318H1351.78C1350.93 723.318 1350.22 722.533 1350.22 721.559Z" fill="#AFAFAF" fill-opacity="0.1"/>
<path d="M136.559 776.446C135.586 776.446 134.801 775.66 134.801 774.687V696H111V796.039C111 798.77 113.229 801 115.961 801H156.655C159.387 801 161.616 798.77 161.616 796.039V721.874C161.616 720.9 162.401 720.115 163.374 720.115C164.348 720.115 165.133 720.9 165.133 721.874V801H188.777V759.175H192.199V800.969H216V696H192.199V737.825H188.777V700.961C188.777 698.23 186.547 696 183.815 696H143.279C140.547 696 138.318 698.23 138.318 700.961V774.719C138.318 775.66 137.533 776.446 136.559 776.446Z" fill="#AFAFAF" fill-opacity="0.1"/>
<path d="M248.216 721.559C248.216 720.586 248.926 719.801 249.807 719.801H321V696H230.488C228.017 696 226 698.229 226 700.961V741.655C226 744.387 228.017 746.616 230.488 746.616H297.591C298.472 746.616 299.181 747.401 299.181 748.374C299.181 749.348 298.472 750.133 297.591 750.133H226V773.777H263.841V777.199H226.028V801H321V777.199H283.159V773.777H316.512C318.983 773.777 321 771.547 321 768.815V728.279C321 725.547 318.983 723.318 316.512 723.318H249.778C248.926 723.318 248.216 722.533 248.216 721.559Z" fill="#AFAFAF" fill-opacity="0.1"/>
<path d="M356.803 776.446C355.82 776.446 355.027 775.66 355.027 774.687V696H331V796.039C331 798.77 333.251 801 336.008 801H377.09C379.848 801 382.098 798.77 382.098 796.039V721.874C382.098 720.9 382.891 720.115 383.873 720.115C384.856 720.115 385.648 720.9 385.648 721.874V801H409.517V759.175H412.973V800.969H437V696H412.973V737.825H409.517V700.961C409.517 698.23 407.267 696 404.509 696H363.586C360.828 696 358.578 698.23 358.578 700.961V774.719C358.578 775.66 357.785 776.446 356.803 776.446Z" fill="#AFAFAF" fill-opacity="0.1"/>
<path d="M468.982 721.559C468.982 720.586 469.685 719.801 470.556 719.801H541V696H451.441C448.996 696 447 698.229 447 700.961V741.655C447 744.387 448.996 746.616 451.441 746.616H517.837C518.709 746.616 519.411 747.401 519.411 748.374C519.411 749.348 518.709 750.133 517.837 750.133H447V773.777H484.443V777.199H447.028V801H541V777.199H503.557V773.777H536.559C539.004 773.777 541 771.547 541 768.815V728.279C541 725.547 539.004 723.318 536.559 723.318H470.528C469.685 723.318 468.982 722.533 468.982 721.559Z" fill="#AFAFAF" fill-opacity="0.1"/>
<path d="M576.803 776.446C575.82 776.446 575.027 775.66 575.027 774.687V696H551V796.039C551 798.77 553.251 801 556.008 801H597.09C599.848 801 602.098 798.77 602.098 796.039V721.874C602.098 720.9 602.891 720.115 603.873 720.115C604.856 720.115 605.648 720.9 605.648 721.874V801H629.517V759.175H632.973V800.969H657V696H632.973V737.825H629.517V700.961C629.517 698.23 627.267 696 624.509 696H583.586C580.828 696 578.578 698.23 578.578 700.961V774.719C578.578 775.66 577.785 776.446 576.803 776.446Z" fill="#AFAFAF" fill-opacity="0.1"/>
<path d="M689.216 721.559C689.216 720.586 689.926 719.801 690.807 719.801H762V696H671.488C669.017 696 667 698.229 667 700.961V741.655C667 744.387 669.017 746.616 671.488 746.616H738.591C739.472 746.616 740.181 747.401 740.181 748.374C740.181 749.348 739.472 750.133 738.591 750.133H667V773.777H704.841V777.199H667.028V801H762V777.199H724.159V773.777H757.512C759.983 773.777 762 771.547 762 768.815V728.279C762 725.547 759.983 723.318 757.512 723.318H690.778C689.926 723.318 689.216 722.533 689.216 721.559Z" fill="#AFAFAF" fill-opacity="0.1"/>
<path d="M797.803 776.446C796.82 776.446 796.027 775.66 796.027 774.687V696H772V796.039C772 798.77 774.251 801 777.008 801H818.09C820.848 801 823.098 798.77 823.098 796.039V721.874C823.098 720.9 823.891 720.115 824.873 720.115C825.856 720.115 826.648 720.9 826.648 721.874V801H850.517V759.175H853.973V800.969H878V696H853.973V737.825H850.517V700.961C850.517 698.23 848.267 696 845.509 696H804.586C801.828 696 799.578 698.23 799.578 700.961V774.719C799.578 775.66 798.785 776.446 797.803 776.446Z" fill="#AFAFAF" fill-opacity="0.1"/>
<path d="M909.982 721.559C909.982 720.586 910.685 719.801 911.556 719.801H982V696H892.441C889.996 696 888 698.229 888 700.961V741.655C888 744.387 889.996 746.616 892.441 746.616H958.837C959.709 746.616 960.411 747.401 960.411 748.374C960.411 749.348 959.709 750.133 958.837 750.133H888V773.777H925.443V777.199H888.028V801H982V777.199H944.557V773.777H977.559C980.004 773.777 982 771.547 982 768.815V728.279C982 725.547 980.004 723.318 977.559 723.318H911.528C910.685 723.318 909.982 722.533 909.982 721.559Z" fill="#AFAFAF" fill-opacity="0.1"/>
<path d="M1017.8 776.446C1016.82 776.446 1016.03 775.66 1016.03 774.687V696H992V796.039C992 798.77 994.251 801 997.008 801H1038.09C1040.85 801 1043.1 798.77 1043.1 796.039V721.874C1043.1 720.9 1043.89 720.115 1044.87 720.115C1045.86 720.115 1046.65 720.9 1046.65 721.874V801H1070.52V759.175H1073.97V800.969H1098V696H1073.97V737.825H1070.52V700.961C1070.52 698.23 1068.27 696 1065.51 696H1024.59C1021.83 696 1019.58 698.23 1019.58 700.961V774.719C1019.58 775.66 1018.79 776.446 1017.8 776.446Z" fill="#AFAFAF" fill-opacity="0.1"/>
<path d="M1130.22 721.559C1130.22 720.586 1130.93 719.801 1131.81 719.801H1203V696H1112.49C1110.02 696 1108 698.229 1108 700.961V741.655C1108 744.387 1110.02 746.616 1112.49 746.616H1179.59C1180.47 746.616 1181.18 747.401 1181.18 748.374C1181.18 749.348 1180.47 750.133 1179.59 750.133H1108V773.777H1145.84V777.199H1108.03V801H1203V777.199H1165.16V773.777H1198.51C1200.98 773.777 1203 771.547 1203 768.815V728.279C1203 725.547 1200.98 723.318 1198.51 723.318H1131.78C1130.93 723.318 1130.22 722.533 1130.22 721.559Z" fill="#AFAFAF" fill-opacity="0.1"/>
<path d="M1238.56 776.446C1237.59 776.446 1236.8 775.66 1236.8 774.687V696H1213V796.039C1213 798.77 1215.23 801 1217.96 801H1258.65C1261.39 801 1263.62 798.77 1263.62 796.039V721.874C1263.62 720.9 1264.4 720.115 1265.37 720.115C1266.35 720.115 1267.13 720.9 1267.13 721.874V801H1290.78V759.175H1294.2V800.969H1318V696H1294.2V737.825H1290.78V700.961C1290.78 698.23 1288.55 696 1285.82 696H1245.28C1242.55 696 1240.32 698.23 1240.32 700.961V774.719C1240.32 775.66 1239.53 776.446 1238.56 776.446Z" fill="#AFAFAF" fill-opacity="0.1"/>
<path d="M137.982 837.559C137.982 836.586 138.685 835.801 139.556 835.801H210V812H120.441C117.996 812 116 814.229 116 816.961V857.655C116 860.387 117.996 862.616 120.441 862.616H186.837C187.709 862.616 188.411 863.401 188.411 864.374C188.411 865.348 187.709 866.133 186.837 866.133H116V889.777H153.443V893.199H116.028V917H210V893.199H172.557V889.777H205.559C208.004 889.777 210 887.547 210 884.815V844.279C210 841.547 208.004 839.318 205.559 839.318H139.528C138.685 839.318 137.982 838.533 137.982 837.559Z" fill="#AFAFAF" fill-opacity="0.1"/>
<path d="M245.803 892.446C244.82 892.446 244.027 891.66 244.027 890.687V812H220V912.039C220 914.77 222.251 917 225.008 917H266.09C268.848 917 271.098 914.77 271.098 912.039V837.874C271.098 836.9 271.891 836.115 272.873 836.115C273.856 836.115 274.648 836.9 274.648 837.874V917H298.517V875.175H301.973V916.969H326V812H301.973V853.825H298.517V816.961C298.517 814.23 296.267 812 293.509 812H252.586C249.828 812 247.578 814.23 247.578 816.961V890.719C247.578 891.66 246.785 892.446 245.803 892.446Z" fill="#AFAFAF" fill-opacity="0.1"/>
<path d="M358.216 837.559C358.216 836.586 358.926 835.801 359.807 835.801H431V812H340.488C338.017 812 336 814.229 336 816.961V857.655C336 860.387 338.017 862.616 340.488 862.616H407.591C408.472 862.616 409.181 863.401 409.181 864.374C409.181 865.348 408.472 866.133 407.591 866.133H336V889.777H373.841V893.199H336.028V917H431V893.199H393.159V889.777H426.512C428.983 889.777 431 887.547 431 884.815V844.279C431 841.547 428.983 839.318 426.512 839.318H359.778C358.926 839.318 358.216 838.533 358.216 837.559Z" fill="#AFAFAF" fill-opacity="0.1"/>
<path d="M466.559 892.446C465.586 892.446 464.801 891.66 464.801 890.687V812H441V912.039C441 914.77 443.229 917 445.961 917H486.655C489.387 917 491.616 914.77 491.616 912.039V837.874C491.616 836.9 492.401 836.115 493.374 836.115C494.348 836.115 495.133 836.9 495.133 837.874V917H518.777V875.175H522.199V916.969H546V812H522.199V853.825H518.777V816.961C518.777 814.23 516.547 812 513.815 812H473.279C470.547 812 468.318 814.23 468.318 816.961V890.719C468.318 891.66 467.533 892.446 466.559 892.446Z" fill="#AFAFAF" fill-opacity="0.1"/>
<path d="M578.982 837.559C578.982 836.586 579.685 835.801 580.556 835.801H651V812H561.441C558.996 812 557 814.229 557 816.961V857.655C557 860.387 558.996 862.616 561.441 862.616H627.837C628.709 862.616 629.411 863.401 629.411 864.374C629.411 865.348 628.709 866.133 627.837 866.133H557V889.777H594.443V893.199H557.028V917H651V893.199H613.557V889.777H646.559C649.004 889.777 651 887.547 651 884.815V844.279C651 841.547 649.004 839.318 646.559 839.318H580.528C579.685 839.318 578.982 838.533 578.982 837.559Z" fill="#AFAFAF" fill-opacity="0.1"/>
<path d="M686.803 892.446C685.82 892.446 685.027 891.66 685.027 890.687V812H661V912.039C661 914.77 663.251 917 666.008 917H707.09C709.848 917 712.098 914.77 712.098 912.039V837.874C712.098 836.9 712.891 836.115 713.873 836.115C714.856 836.115 715.648 836.9 715.648 837.874V917H739.517V875.175H742.973V916.969H767V812H742.973V853.825H739.517V816.961C739.517 814.23 737.267 812 734.509 812H693.586C690.828 812 688.578 814.23 688.578 816.961V890.719C688.578 891.66 687.785 892.446 686.803 892.446Z" fill="#AFAFAF" fill-opacity="0.1"/>
<path d="M798.982 837.559C798.982 836.586 799.685 835.801 800.556 835.801H871V812H781.441C778.996 812 777 814.229 777 816.961V857.655C777 860.387 778.996 862.616 781.441 862.616H847.837C848.709 862.616 849.411 863.401 849.411 864.374C849.411 865.348 848.709 866.133 847.837 866.133H777V889.777H814.443V893.199H777.028V917H871V893.199H833.557V889.777H866.559C869.004 889.777 871 887.547 871 884.815V844.279C871 841.547 869.004 839.318 866.559 839.318H800.528C799.685 839.318 798.982 838.533 798.982 837.559Z" fill="#AFAFAF" fill-opacity="0.1"/>
<path d="M907.559 892.446C906.586 892.446 905.801 891.66 905.801 890.687V812H882V912.039C882 914.77 884.229 917 886.961 917H927.655C930.387 917 932.616 914.77 932.616 912.039V837.874C932.616 836.9 933.401 836.115 934.374 836.115C935.348 836.115 936.133 836.9 936.133 837.874V917H959.777V875.175H963.199V916.969H987V812H963.199V853.825H959.777V816.961C959.777 814.23 957.547 812 954.815 812H914.279C911.547 812 909.318 814.23 909.318 816.961V890.719C909.318 891.66 908.533 892.446 907.559 892.446Z" fill="#AFAFAF" fill-opacity="0.1"/>
<path d="M1019.22 837.559C1019.22 836.586 1019.93 835.801 1020.81 835.801H1092V812H1001.49C999.017 812 997 814.229 997 816.961V857.655C997 860.387 999.017 862.616 1001.49 862.616H1068.59C1069.47 862.616 1070.18 863.401 1070.18 864.374C1070.18 865.348 1069.47 866.133 1068.59 866.133H997V889.777H1034.84V893.199H997.028V917H1092V893.199H1054.16V889.777H1087.51C1089.98 889.777 1092 887.547 1092 884.815V844.279C1092 841.547 1089.98 839.318 1087.51 839.318H1020.78C1019.93 839.318 1019.22 838.533 1019.22 837.559Z" fill="#AFAFAF" fill-opacity="0.1"/>
<path d="M1127.8 892.446C1126.82 892.446 1126.03 891.66 1126.03 890.687V812H1102V912.039C1102 914.77 1104.25 917 1107.01 917H1148.09C1150.85 917 1153.1 914.77 1153.1 912.039V837.874C1153.1 836.9 1153.89 836.115 1154.87 836.115C1155.86 836.115 1156.65 836.9 1156.65 837.874V917H1180.52V875.175H1183.97V916.969H1208V812H1183.97V853.825H1180.52V816.961C1180.52 814.23 1178.27 812 1175.51 812H1134.59C1131.83 812 1129.58 814.23 1129.58 816.961V890.719C1129.58 891.66 1128.79 892.446 1127.8 892.446Z" fill="#AFAFAF" fill-opacity="0.1"/>
<path d="M1239.98 837.559C1239.98 836.586 1240.68 835.801 1241.56 835.801H1312V812H1222.44C1220 812 1218 814.229 1218 816.961V857.655C1218 860.387 1220 862.616 1222.44 862.616H1288.84C1289.71 862.616 1290.41 863.401 1290.41 864.374C1290.41 865.348 1289.71 866.133 1288.84 866.133H1218V889.777H1255.44V893.199H1218.03V917H1312V893.199H1274.56V889.777H1307.56C1310 889.777 1312 887.547 1312 884.815V844.279C1312 841.547 1310 839.318 1307.56 839.318H1241.53C1240.68 839.318 1239.98 838.533 1239.98 837.559Z" fill="#AFAFAF" fill-opacity="0.1"/>
<path d="M1347.8 892.446C1346.82 892.446 1346.03 891.66 1346.03 890.687V812H1322V912.039C1322 914.77 1324.25 917 1327.01 917H1368.09C1370.85 917 1373.1 914.77 1373.1 912.039V837.874C1373.1 836.9 1373.89 836.115 1374.87 836.115C1375.86 836.115 1376.65 836.9 1376.65 837.874V917H1400.52V875.175H1403.97V916.969H1428V812H1403.97V853.825H1400.52V816.961C1400.52 814.23 1398.27 812 1395.51 812H1354.59C1351.83 812 1349.58 814.23 1349.58 816.961V890.719C1349.58 891.66 1348.79 892.446 1347.8 892.446Z" fill="#AFAFAF" fill-opacity="0.1"/>
<path d="M25.8026 892.446C24.82 892.446 24.0275 891.66 24.0275 890.687L24.0275 812H0L0 912.039C0 914.77 2.25059 917 5.00837 917H46.0897C48.8475 917 51.0981 914.77 51.0981 912.039L51.0981 837.874C51.0981 836.9 51.8905 836.115 52.8732 836.115C53.8559 836.115 54.6484 836.9 54.6484 837.874L54.6484 917H78.5173V875.175H81.9725V916.969H106V812H81.9725V853.825H78.5173V816.961C78.5173 814.23 76.2667 812 73.509 812H32.5861C29.8283 812 27.5778 814.23 27.5778 816.961L27.5778 890.719C27.5778 891.66 26.7853 892.446 25.8026 892.446Z" fill="#AFAFAF" fill-opacity="0.1"/>
<path d="M30.2159 489.559C30.2159 488.586 30.9263 487.801 31.8066 487.801H103V464H12.4882C10.0172 464 8 466.229 8 468.961V509.655C8 512.387 10.0172 514.616 12.4882 514.616H79.5906C80.4719 514.616 81.1813 515.401 81.1813 516.374C81.1813 517.348 80.4719 518.133 79.5906 518.133H8V541.777H45.8413V545.199H8.0283V569H103V545.199H65.1587V541.777H98.5118C100.983 541.777 103 539.547 103 536.815V496.279C103 493.547 100.983 491.318 98.5118 491.318H31.7783C30.9263 491.318 30.2159 490.533 30.2159 489.559Z" fill="#AFAFAF" fill-opacity="0.1"/>
<path d="M1352.22 489.559C1352.22 488.586 1352.93 487.801 1353.81 487.801H1425V464H1334.49C1332.02 464 1330 466.229 1330 468.961V509.655C1330 512.387 1332.02 514.616 1334.49 514.616H1401.59C1402.47 514.616 1403.18 515.401 1403.18 516.374C1403.18 517.348 1402.47 518.133 1401.59 518.133H1330V541.777H1367.84V545.199H1330.03V569H1425V545.199H1387.16V541.777H1420.51C1422.98 541.777 1425 539.547 1425 536.815V496.279C1425 493.547 1422.98 491.318 1420.51 491.318H1353.78C1352.93 491.318 1352.22 490.533 1352.22 489.559Z" fill="#AFAFAF" fill-opacity="0.1"/>
<path d="M138.559 544.446C137.586 544.446 136.801 543.66 136.801 542.687V464H113V564.039C113 566.77 115.229 569 117.961 569H158.655C161.387 569 163.616 566.77 163.616 564.039V489.874C163.616 488.9 164.401 488.115 165.374 488.115C166.348 488.115 167.133 488.9 167.133 489.874V569H190.777V527.175H194.199V568.969H218V464H194.199V505.825H190.777V468.961C190.777 466.23 188.547 464 185.815 464H145.279C142.547 464 140.318 466.23 140.318 468.961V542.719C140.318 543.66 139.533 544.446 138.559 544.446Z" fill="#AFAFAF" fill-opacity="0.1"/>
<path d="M250.216 489.559C250.216 488.586 250.926 487.801 251.807 487.801H323V464H232.488C230.017 464 228 466.229 228 468.961V509.655C228 512.387 230.017 514.616 232.488 514.616H299.591C300.472 514.616 301.181 515.401 301.181 516.374C301.181 517.348 300.472 518.133 299.591 518.133H228V541.777H265.841V545.199H228.028V569H323V545.199H285.159V541.777H318.512C320.983 541.777 323 539.547 323 536.815V496.279C323 493.547 320.983 491.318 318.512 491.318H251.778C250.926 491.318 250.216 490.533 250.216 489.559Z" fill="#AFAFAF" fill-opacity="0.1"/>
<path d="M358.803 544.446C357.82 544.446 357.027 543.66 357.027 542.687V464H333V564.039C333 566.77 335.251 569 338.008 569H379.09C381.848 569 384.098 566.77 384.098 564.039V489.874C384.098 488.9 384.891 488.115 385.873 488.115C386.856 488.115 387.648 488.9 387.648 489.874V569H411.517V527.175H414.973V568.969H439V464H414.973V505.825H411.517V468.961C411.517 466.23 409.267 464 406.509 464H365.586C362.828 464 360.578 466.23 360.578 468.961V542.719C360.578 543.66 359.785 544.446 358.803 544.446Z" fill="#AFAFAF" fill-opacity="0.1"/>
<path d="M470.982 489.559C470.982 488.586 471.685 487.801 472.556 487.801H543V464H453.441C450.996 464 449 466.229 449 468.961V509.655C449 512.387 450.996 514.616 453.441 514.616H519.837C520.709 514.616 521.411 515.401 521.411 516.374C521.411 517.348 520.709 518.133 519.837 518.133H449V541.777H486.443V545.199H449.028V569H543V545.199H505.557V541.777H538.559C541.004 541.777 543 539.547 543 536.815V496.279C543 493.547 541.004 491.318 538.559 491.318H472.528C471.685 491.318 470.982 490.533 470.982 489.559Z" fill="#AFAFAF" fill-opacity="0.1"/>
<path d="M578.803 544.446C577.82 544.446 577.027 543.66 577.027 542.687V464H553V564.039C553 566.77 555.251 569 558.008 569H599.09C601.848 569 604.098 566.77 604.098 564.039V489.874C604.098 488.9 604.891 488.115 605.873 488.115C606.856 488.115 607.648 488.9 607.648 489.874V569H631.517V527.175H634.973V568.969H659V464H634.973V505.825H631.517V468.961C631.517 466.23 629.267 464 626.509 464H585.586C582.828 464 580.578 466.23 580.578 468.961V542.719C580.578 543.66 579.785 544.446 578.803 544.446Z" fill="#AFAFAF" fill-opacity="0.1"/>
<path d="M691.216 489.559C691.216 488.586 691.926 487.801 692.807 487.801H764V464H673.488C671.017 464 669 466.229 669 468.961V509.655C669 512.387 671.017 514.616 673.488 514.616H740.591C741.472 514.616 742.181 515.401 742.181 516.374C742.181 517.348 741.472 518.133 740.591 518.133H669V541.777H706.841V545.199H669.028V569H764V545.199H726.159V541.777H759.512C761.983 541.777 764 539.547 764 536.815V496.279C764 493.547 761.983 491.318 759.512 491.318H692.778C691.926 491.318 691.216 490.533 691.216 489.559Z" fill="#AFAFAF" fill-opacity="0.1"/>
<path d="M799.803 544.446C798.82 544.446 798.027 543.66 798.027 542.687V464H774V564.039C774 566.77 776.251 569 779.008 569H820.09C822.848 569 825.098 566.77 825.098 564.039V489.874C825.098 488.9 825.891 488.115 826.873 488.115C827.856 488.115 828.648 488.9 828.648 489.874V569H852.517V527.175H855.973V568.969H880V464H855.973V505.825H852.517V468.961C852.517 466.23 850.267 464 847.509 464H806.586C803.828 464 801.578 466.23 801.578 468.961V542.719C801.578 543.66 800.785 544.446 799.803 544.446Z" fill="#AFAFAF" fill-opacity="0.1"/>
<path d="M911.982 489.559C911.982 488.586 912.685 487.801 913.556 487.801H984V464H894.441C891.996 464 890 466.229 890 468.961V509.655C890 512.387 891.996 514.616 894.441 514.616H960.837C961.709 514.616 962.411 515.401 962.411 516.374C962.411 517.348 961.709 518.133 960.837 518.133H890V541.777H927.443V545.199H890.028V569H984V545.199H946.557V541.777H979.559C982.004 541.777 984 539.547 984 536.815V496.279C984 493.547 982.004 491.318 979.559 491.318H913.528C912.685 491.318 911.982 490.533 911.982 489.559Z" fill="#AFAFAF" fill-opacity="0.1"/>
<path d="M1019.8 544.446C1018.82 544.446 1018.03 543.66 1018.03 542.687V464H994V564.039C994 566.77 996.251 569 999.008 569H1040.09C1042.85 569 1045.1 566.77 1045.1 564.039V489.874C1045.1 488.9 1045.89 488.115 1046.87 488.115C1047.86 488.115 1048.65 488.9 1048.65 489.874V569H1072.52V527.175H1075.97V568.969H1100V464H1075.97V505.825H1072.52V468.961C1072.52 466.23 1070.27 464 1067.51 464H1026.59C1023.83 464 1021.58 466.23 1021.58 468.961V542.719C1021.58 543.66 1020.79 544.446 1019.8 544.446Z" fill="#AFAFAF" fill-opacity="0.1"/>
<path d="M1132.22 489.559C1132.22 488.586 1132.93 487.801 1133.81 487.801H1205V464H1114.49C1112.02 464 1110 466.229 1110 468.961V509.655C1110 512.387 1112.02 514.616 1114.49 514.616H1181.59C1182.47 514.616 1183.18 515.401 1183.18 516.374C1183.18 517.348 1182.47 518.133 1181.59 518.133H1110V541.777H1147.84V545.199H1110.03V569H1205V545.199H1167.16V541.777H1200.51C1202.98 541.777 1205 539.547 1205 536.815V496.279C1205 493.547 1202.98 491.318 1200.51 491.318H1133.78C1132.93 491.318 1132.22 490.533 1132.22 489.559Z" fill="#AFAFAF" fill-opacity="0.1"/>
<path d="M1240.56 544.446C1239.59 544.446 1238.8 543.66 1238.8 542.687V464H1215V564.039C1215 566.77 1217.23 569 1219.96 569H1260.65C1263.39 569 1265.62 566.77 1265.62 564.039V489.874C1265.62 488.9 1266.4 488.115 1267.37 488.115C1268.35 488.115 1269.13 488.9 1269.13 489.874V569H1292.78V527.175H1296.2V568.969H1320V464H1296.2V505.825H1292.78V468.961C1292.78 466.23 1290.55 464 1287.82 464H1247.28C1244.55 464 1242.32 466.23 1242.32 468.961V542.719C1242.32 543.66 1241.53 544.446 1240.56 544.446Z" fill="#AFAFAF" fill-opacity="0.1"/>
<path d="M139.982 605.559C139.982 604.586 140.685 603.801 141.556 603.801H212V580H122.441C119.996 580 118 582.229 118 584.961V625.655C118 628.387 119.996 630.616 122.441 630.616H188.837C189.709 630.616 190.411 631.401 190.411 632.374C190.411 633.348 189.709 634.133 188.837 634.133H118V657.777H155.443V661.199H118.028V685H212V661.199H174.557V657.777H207.559C210.004 657.777 212 655.547 212 652.815V612.279C212 609.547 210.004 607.318 207.559 607.318H141.528C140.685 607.318 139.982 606.533 139.982 605.559Z" fill="#AFAFAF" fill-opacity="0.1"/>
<path d="M247.803 660.446C246.82 660.446 246.027 659.66 246.027 658.687V580H222V680.039C222 682.77 224.251 685 227.008 685H268.09C270.848 685 273.098 682.77 273.098 680.039V605.874C273.098 604.9 273.891 604.115 274.873 604.115C275.856 604.115 276.648 604.9 276.648 605.874V685H300.517V643.175H303.973V684.969H328V580H303.973V621.825H300.517V584.961C300.517 582.23 298.267 580 295.509 580H254.586C251.828 580 249.578 582.23 249.578 584.961V658.719C249.578 659.66 248.785 660.446 247.803 660.446Z" fill="#AFAFAF" fill-opacity="0.1"/>
<path d="M360.216 605.559C360.216 604.586 360.926 603.801 361.807 603.801H433V580H342.488C340.017 580 338 582.229 338 584.961V625.655C338 628.387 340.017 630.616 342.488 630.616H409.591C410.472 630.616 411.181 631.401 411.181 632.374C411.181 633.348 410.472 634.133 409.591 634.133H338V657.777H375.841V661.199H338.028V685H433V661.199H395.159V657.777H428.512C430.983 657.777 433 655.547 433 652.815V612.279C433 609.547 430.983 607.318 428.512 607.318H361.778C360.926 607.318 360.216 606.533 360.216 605.559Z" fill="#AFAFAF" fill-opacity="0.1"/>
<path d="M468.559 660.446C467.586 660.446 466.801 659.66 466.801 658.687V580H443V680.039C443 682.77 445.229 685 447.961 685H488.655C491.387 685 493.616 682.77 493.616 680.039V605.874C493.616 604.9 494.401 604.115 495.374 604.115C496.348 604.115 497.133 604.9 497.133 605.874V685H520.777V643.175H524.199V684.969H548V580H524.199V621.825H520.777V584.961C520.777 582.23 518.547 580 515.815 580H475.279C472.547 580 470.318 582.23 470.318 584.961V658.719C470.318 659.66 469.533 660.446 468.559 660.446Z" fill="#AFAFAF" fill-opacity="0.1"/>
<path d="M580.982 605.559C580.982 604.586 581.685 603.801 582.556 603.801H653V580H563.441C560.996 580 559 582.229 559 584.961V625.655C559 628.387 560.996 630.616 563.441 630.616H629.837C630.709 630.616 631.411 631.401 631.411 632.374C631.411 633.348 630.709 634.133 629.837 634.133H559V657.777H596.443V661.199H559.028V685H653V661.199H615.557V657.777H648.559C651.004 657.777 653 655.547 653 652.815V612.279C653 609.547 651.004 607.318 648.559 607.318H582.528C581.685 607.318 580.982 606.533 580.982 605.559Z" fill="#AFAFAF" fill-opacity="0.1"/>
<path d="M688.803 660.446C687.82 660.446 687.027 659.66 687.027 658.687V580H663V680.039C663 682.77 665.251 685 668.008 685H709.09C711.848 685 714.098 682.77 714.098 680.039V605.874C714.098 604.9 714.891 604.115 715.873 604.115C716.856 604.115 717.648 604.9 717.648 605.874V685H741.517V643.175H744.973V684.969H769V580H744.973V621.825H741.517V584.961C741.517 582.23 739.267 580 736.509 580H695.586C692.828 580 690.578 582.23 690.578 584.961V658.719C690.578 659.66 689.785 660.446 688.803 660.446Z" fill="#AFAFAF" fill-opacity="0.1"/>
<path d="M800.982 605.559C800.982 604.586 801.685 603.801 802.556 603.801H873V580H783.441C780.996 580 779 582.229 779 584.961V625.655C779 628.387 780.996 630.616 783.441 630.616H849.837C850.709 630.616 851.411 631.401 851.411 632.374C851.411 633.348 850.709 634.133 849.837 634.133H779V657.777H816.443V661.199H779.028V685H873V661.199H835.557V657.777H868.559C871.004 657.777 873 655.547 873 652.815V612.279C873 609.547 871.004 607.318 868.559 607.318H802.528C801.685 607.318 800.982 606.533 800.982 605.559Z" fill="#AFAFAF" fill-opacity="0.1"/>
<path d="M909.559 660.446C908.586 660.446 907.801 659.66 907.801 658.687V580H884V680.039C884 682.77 886.229 685 888.961 685H929.655C932.387 685 934.616 682.77 934.616 680.039V605.874C934.616 604.9 935.401 604.115 936.374 604.115C937.348 604.115 938.133 604.9 938.133 605.874V685H961.777V643.175H965.199V684.969H989V580H965.199V621.825H961.777V584.961C961.777 582.23 959.547 580 956.815 580H916.279C913.547 580 911.318 582.23 911.318 584.961V658.719C911.318 659.66 910.533 660.446 909.559 660.446Z" fill="#AFAFAF" fill-opacity="0.1"/>
<path d="M1021.22 605.559C1021.22 604.586 1021.93 603.801 1022.81 603.801H1094V580H1003.49C1001.02 580 999 582.229 999 584.961V625.655C999 628.387 1001.02 630.616 1003.49 630.616H1070.59C1071.47 630.616 1072.18 631.401 1072.18 632.374C1072.18 633.348 1071.47 634.133 1070.59 634.133H999V657.777H1036.84V661.199H999.028V685H1094V661.199H1056.16V657.777H1089.51C1091.98 657.777 1094 655.547 1094 652.815V612.279C1094 609.547 1091.98 607.318 1089.51 607.318H1022.78C1021.93 607.318 1021.22 606.533 1021.22 605.559Z" fill="#AFAFAF" fill-opacity="0.1"/>
<path d="M1129.8 660.446C1128.82 660.446 1128.03 659.66 1128.03 658.687V580H1104V680.039C1104 682.77 1106.25 685 1109.01 685H1150.09C1152.85 685 1155.1 682.77 1155.1 680.039V605.874C1155.1 604.9 1155.89 604.115 1156.87 604.115C1157.86 604.115 1158.65 604.9 1158.65 605.874V685H1182.52V643.175H1185.97V684.969H1210V580H1185.97V621.825H1182.52V584.961C1182.52 582.23 1180.27 580 1177.51 580H1136.59C1133.83 580 1131.58 582.23 1131.58 584.961V658.719C1131.58 659.66 1130.79 660.446 1129.8 660.446Z" fill="#AFAFAF" fill-opacity="0.1"/>
<path d="M1241.98 605.559C1241.98 604.586 1242.68 603.801 1243.56 603.801H1314V580H1224.44C1222 580 1220 582.229 1220 584.961V625.655C1220 628.387 1222 630.616 1224.44 630.616H1290.84C1291.71 630.616 1292.41 631.401 1292.41 632.374C1292.41 633.348 1291.71 634.133 1290.84 634.133H1220V657.777H1257.44V661.199H1220.03V685H1314V661.199H1276.56V657.777H1309.56C1312 657.777 1314 655.547 1314 652.815V612.279C1314 609.547 1312 607.318 1309.56 607.318H1243.53C1242.68 607.318 1241.98 606.533 1241.98 605.559Z" fill="#AFAFAF" fill-opacity="0.1"/>
<path d="M1349.8 660.446C1348.82 660.446 1348.03 659.66 1348.03 658.687V580H1324V680.039C1324 682.77 1326.25 685 1329.01 685H1370.09C1372.85 685 1375.1 682.77 1375.1 680.039V605.874C1375.1 604.9 1375.89 604.115 1376.87 604.115C1377.86 604.115 1378.65 604.9 1378.65 605.874V685H1402.52V643.175H1405.97V684.969H1430V580H1405.97V621.825H1402.52V584.961C1402.52 582.23 1400.27 580 1397.51 580H1356.59C1353.83 580 1351.58 582.23 1351.58 584.961V658.719C1351.58 659.66 1350.79 660.446 1349.8 660.446Z" fill="#AFAFAF" fill-opacity="0.1"/>
<path d="M27.8026 660.446C26.82 660.446 26.0275 659.66 26.0275 658.687L26.0275 580H2L2 680.039C2 682.77 4.25059 685 7.00837 685H48.0897C50.8475 685 53.0981 682.77 53.0981 680.039L53.0981 605.874C53.0981 604.9 53.8905 604.115 54.8732 604.115C55.8559 604.115 56.6484 604.9 56.6484 605.874L56.6484 685H80.5173V643.175H83.9725V684.969H108V580H83.9725V621.825H80.5173V584.961C80.5173 582.23 78.2667 580 75.509 580H34.5861C31.8283 580 29.5778 582.23 29.5778 584.961L29.5778 658.719C29.5778 659.66 28.7853 660.446 27.8026 660.446Z" fill="#AFAFAF" fill-opacity="0.1"/>
</svg>
