<svg width="82" height="117" viewBox="0 0 82 117" fill="none" xmlns="http://www.w3.org/2000/svg">
<path d="M4.07127 110.806C4.04704 110.643 4.02281 110.223 3.32005 110.223C2.81115 110.223 2.64152 110.526 2.64152 110.736C2.64152 111.156 3.22312 111.389 3.85318 111.552C5.21023 111.902 6.63999 112.298 6.63999 113.953C6.63999 115.562 5.16177 116.564 3.39275 116.564C2.18109 116.564 0.363606 116.052 0.145508 114.023H2.49612C2.59305 114.723 3.29582 114.723 3.39275 114.723C3.80471 114.723 4.21667 114.513 4.21667 114.14C4.21667 113.534 3.63508 113.487 2.10839 112.904C1.06637 112.578 0.218208 111.948 0.218208 110.899C0.218208 109.384 1.64796 108.382 3.29581 108.382C4.33784 108.382 6.15533 108.778 6.34919 110.806H4.07127Z" fill="black"/>
<path d="M12.6496 108.405C15.5334 108.405 16.9389 110.596 16.9389 112.485C16.9389 114.373 15.5576 116.541 12.6496 116.541C9.76587 116.541 8.36035 114.35 8.36035 112.485C8.36035 110.596 9.76587 108.405 12.6496 108.405ZM12.6496 114.396C13.6916 114.396 14.564 113.58 14.564 112.461C14.564 111.342 13.6916 110.526 12.6496 110.526C11.6318 110.526 10.7352 111.342 10.7352 112.461C10.7352 113.604 11.6318 114.396 12.6496 114.396Z" fill="black"/>
<path d="M19.1926 108.661H21.3978V109.477H21.4221C21.6644 109.104 22.1733 108.405 23.5788 108.405C24.33 108.405 25.1782 108.708 25.6144 109.058C26.0506 109.407 26.5353 110.013 26.5353 111.529V116.308H24.1604V112.135C24.1604 111.599 24.1604 110.55 22.9245 110.55C21.5675 110.55 21.5675 111.692 21.5675 112.158V116.331H19.1926V108.661Z" fill="black"/>
<path d="M37.513 116.308H35.1381V115.469H35.1139C34.7262 116.215 33.7326 116.564 32.7875 116.564C30.2673 116.564 28.7891 114.653 28.7891 112.461C28.7891 109.944 30.655 108.382 32.7875 108.382C34.0961 108.382 34.8231 108.988 35.1139 109.454H35.1381V108.638H37.513V116.308ZM33.151 114.443C34.6292 114.443 35.1381 113.231 35.1381 112.485C35.1381 111.552 34.4838 110.55 33.1268 110.55C31.7697 110.55 31.1639 111.645 31.1639 112.531C31.1639 113.231 31.7213 114.443 33.151 114.443Z" fill="black"/>
<path d="M43.0864 108.661H44.2254V110.386H43.0864V116.308H40.7116V110.386H39.5242V108.661H40.7116V106.097H43.0864V108.661Z" fill="black"/>
<path d="M46.1641 108.661H48.3936V109.477H48.4178C48.6117 109.104 49.0236 108.405 50.4049 108.405V110.713C49.2902 110.736 48.5147 110.969 48.5147 112.112V116.331H46.1399V108.661H46.1641Z" fill="black"/>
<path d="M60.6314 116.308H58.2566V115.469H58.2323C57.8204 116.215 56.851 116.564 55.9059 116.564C53.3857 116.564 51.9075 114.653 51.9075 112.461C51.9075 109.944 53.7734 108.382 55.9059 108.382C57.2145 108.382 57.9415 108.988 58.2323 109.454H58.2566V108.638H60.6314V116.308ZM56.2694 114.443C57.7477 114.443 58.2566 113.231 58.2566 112.485C58.2566 111.552 57.6023 110.55 56.2452 110.55C54.8882 110.55 54.2823 111.645 54.2823 112.531C54.2823 113.231 54.8397 114.443 56.2694 114.443Z" fill="black"/>
<path d="M71.3181 113.394C70.8819 115.142 69.3068 116.564 67.15 116.564C64.751 116.564 62.885 114.746 62.885 112.461C62.885 110.223 64.7025 108.382 67.0773 108.382C69.1856 108.382 70.8819 109.71 71.2939 111.599H68.8948C68.6283 111.086 68.1678 110.526 67.1743 110.526C66.0353 110.48 65.2841 111.366 65.2841 112.461C65.2841 113.58 66.0353 114.396 67.1743 114.396C68.1678 114.396 68.6283 113.837 68.8948 113.371H71.3181V113.394Z" fill="black"/>
<path d="M73.5232 106.097H75.898V109.361H75.9223C76.31 108.661 77.1339 108.405 77.9579 108.405C78.7091 108.405 79.6299 108.661 80.1146 109.244C80.7931 110.013 80.8658 110.666 80.8658 112.042V116.331H78.491V112.158C78.491 111.785 78.491 110.55 77.2066 110.55C75.8738 110.55 75.8738 111.692 75.8738 112.065V116.308H73.5232V106.097Z" fill="black"/>
<path d="M18.9503 40.7277C18.9503 40.005 19.5561 39.4221 20.3074 39.4221H81.0356V21.751H3.82883C1.72055 21.751 0 23.4062 0 25.4344V55.6479C0 57.6761 1.72055 59.3313 3.82883 59.3313H61.0675C61.8187 59.3313 62.4245 59.9142 62.4245 60.6369C62.4245 61.3596 61.8187 61.9424 61.0675 61.9424H0V79.497H32.2785V82.0381H0.0242309V99.7093H81.0356V82.0381H48.7571V79.497H77.2067C79.315 79.497 81.0356 77.8418 81.0356 75.8136V45.7166C81.0356 43.6884 79.315 42.0332 77.2067 42.0332H20.2831C19.5561 42.0332 18.9503 41.4504 18.9503 40.7277Z" fill="#F08100"/>
<path d="M9.69327 3.79991C10.8322 3.03059 13.0617 2.68089 14.6126 2.68089C15.2911 2.68089 15.8485 2.1447 15.8485 1.49194C15.8485 0.839175 15.2911 0.302979 14.6126 0.302979C12.7466 0.302979 9.95983 0.699299 8.26352 1.86494C5.6221 3.63672 5.18591 5.38519 5.13744 5.57169C4.99204 6.20114 5.40401 6.80727 6.0583 6.97046C7.77886 7.3901 10.2264 8.18273 11.6319 8.97537C12.1651 9.32507 12.9163 9.9312 13.0617 10.6772C13.0617 10.7005 13.0617 10.7238 13.0617 10.7238C13.0617 10.7705 13.0617 10.8404 13.0859 10.887C13.0859 11.0036 13.0617 11.0735 13.0132 11.0968C12.989 11.1202 12.9163 11.1435 12.8678 11.1435C11.8258 11.1668 7.90002 11.1435 5.79174 11.1435H4.48315C3.46536 11.1435 2.93223 10.6772 2.93223 9.79132V9.37169C2.93223 8.71893 2.37487 8.18273 1.69634 8.18273C1.01781 8.18273 0.460449 8.71893 0.460449 9.37169V9.79132C0.460449 12.3791 2.4718 13.5447 4.48315 13.5447H5.79174C7.00339 13.5447 8.79665 13.5447 10.2991 13.5447C11.4623 13.5447 12.4558 13.5447 12.892 13.5447C13.6433 13.5447 14.3218 13.2416 14.8065 12.7521C15.3154 12.2159 15.5819 11.5165 15.5335 10.7238C15.485 9.88458 15.1215 8.97537 14.5157 8.22936C13.3525 6.78396 10.2022 5.66494 8.19082 5.08212C8.53008 4.6858 9.01474 4.24286 9.69327 3.79991Z" fill="black"/>
<path d="M53.1918 3.77658C52.5133 3.77658 51.9559 4.31277 51.9559 4.96553V9.53486C51.9559 9.55817 51.9559 9.58148 51.9559 9.6048C51.9801 10.0244 51.8347 10.3974 51.5924 10.6539C51.1804 11.0735 50.3807 11.1668 49.7749 11.1668C47.5939 11.1668 47.3274 9.90787 47.2789 9.48823V1.30541C47.2789 0.652651 46.7215 0.116455 46.043 0.116455C45.3645 0.116455 44.8071 0.652651 44.8071 1.30541V9.53486C44.8071 9.65142 44.8556 10.6073 45.5099 11.5631C46.1157 12.4723 47.3516 13.5214 49.7992 13.5214C51.3743 13.5214 52.586 13.1017 53.4099 12.2858C54.1369 11.5631 54.5004 10.5839 54.4519 9.51155V4.96553C54.4277 4.31277 53.8703 3.77658 53.1918 3.77658Z" fill="black"/>
<path d="M39.4515 4.31277C37.9733 4.31277 36.0831 5.03547 33.8537 6.48087C32.9086 7.08701 31.9877 7.69314 31.1154 8.27596V1.30541C31.1154 0.652651 30.558 0.116455 29.8795 0.116455C29.2009 0.116455 28.6436 0.652651 28.6436 1.30541V9.93118C27.8439 10.4907 26.9473 11.1201 26.9473 11.1201H24.9117V5.59498C24.9117 4.94222 24.3543 4.40602 23.6758 4.40602C22.9973 4.40602 22.4399 4.94222 22.4399 5.59498V11.9361C22.4399 11.9594 22.1733 14.0809 19.3865 14.7569C18.7322 14.9201 18.3203 15.5729 18.4899 16.2023C18.6353 16.7385 19.1442 17.1115 19.7015 17.1115C19.7985 17.1115 19.8954 17.1115 20.0166 17.0649C22.5853 16.4355 23.9666 14.8502 24.5724 13.498H37.9976C41.1721 13.498 42.8442 10.8637 42.8442 8.25265C42.7715 4.68578 40.4451 4.31277 39.4515 4.31277ZM37.9249 11.1201H31.2123C32.3755 10.3275 33.8052 9.39498 35.235 8.46247C37.6098 6.92382 38.8942 6.714 39.4515 6.714C39.7908 6.714 40.2997 6.714 40.2997 8.27596C40.2997 8.36922 40.2512 11.1201 37.9249 11.1201Z" fill="black"/>
<path d="M19.3866 12.3324V1.30541C19.3866 0.652651 18.8292 0.116455 18.1507 0.116455C17.4722 0.116455 16.9148 0.652651 16.9148 1.30541V12.3091C16.9148 12.9619 17.4722 13.498 18.1507 13.498C18.8292 13.5214 19.3866 12.9852 19.3866 12.3324Z" fill="black"/>
<path d="M79.3392 3.77661C78.6606 3.77661 78.1033 4.31281 78.1033 4.96557V10.3275C78.1033 10.9104 78.1033 11.1202 76.7705 11.1202C75.4376 11.1202 75.4376 10.9104 75.4376 10.3275V4.96557C75.4376 4.31281 74.8803 3.77661 74.2017 3.77661C73.5232 3.77661 72.9659 4.31281 72.9659 4.96557V10.3275C72.9659 10.9104 72.9659 11.1202 71.633 11.1202C70.3002 11.1202 70.3002 10.9104 70.3002 10.3275V4.96557C70.3002 4.31281 69.7428 3.77661 69.0643 3.77661C68.3858 3.77661 67.8284 4.31281 67.8284 4.96557V10.3275C67.8284 10.9104 67.8284 11.1202 66.4956 11.1202C65.1628 11.1202 65.1628 10.9104 65.1628 10.3275V9.02201C65.1628 8.97538 65.1628 8.34594 65.1628 8.34594C65.1628 5.99133 63.1757 4.07968 60.7281 4.07968C58.2806 4.07968 56.2935 5.99133 56.2935 8.34594C56.2935 10.7005 58.2806 12.6122 60.7281 12.6122C61.4067 12.6122 62.0367 12.4723 62.6183 12.1926C62.4487 12.7987 61.8671 14.0576 59.5649 14.687C58.9106 14.8735 58.5229 15.5263 58.7168 16.1558C58.8622 16.6919 59.3711 17.0183 59.9042 17.0183C60.0254 17.0183 60.1223 16.995 60.2435 16.9717C63.006 16.2024 64.3389 14.6404 64.8478 13.2883C65.3324 13.4281 65.8655 13.4748 66.4956 13.4748C67.5861 13.4748 68.4585 13.265 69.0886 12.8686C69.7186 13.265 70.5668 13.4748 71.6815 13.4748C72.7962 13.4748 73.6444 13.265 74.2744 12.8686C74.9045 13.265 75.7527 13.4748 76.8674 13.4748C79.4119 13.4748 80.6962 12.4024 80.6962 10.3042V4.94226C80.5993 4.31281 80.0419 3.77661 79.3392 3.77661ZM60.6554 10.2343C59.5892 10.2343 58.7168 9.39502 58.7168 8.36925C58.7168 7.34348 59.5892 6.50422 60.6554 6.50422C61.7217 6.50422 62.5941 7.34348 62.5941 8.36925C62.5941 9.39502 61.7217 10.2343 60.6554 10.2343Z" fill="black"/>
<path d="M53.1917 0C52.4405 0 51.8589 0.582822 51.8589 1.28221C51.8589 2.00491 52.4647 2.56442 53.1917 2.56442C53.9429 2.56442 54.5245 1.9816 54.5245 1.28221C54.5245 0.582822 53.9187 0 53.1917 0Z" fill="black"/>
</svg>
